<?xml version="1.0" standalone="no"?>
<!DOCTYPE svg PUBLIC "-//W3C//DTD SVG 20010904//EN"
 "http://www.w3.org/TR/2001/REC-SVG-20010904/DTD/svg10.dtd">
<svg version="1.0" xmlns="http://www.w3.org/2000/svg"
 width="200.000000pt" height="200.000000pt" viewBox="0 0 200.000000 200.000000"
 preserveAspectRatio="xMidYMid meet">
<metadata>
Created by potrace 1.11, written by Peter Selinger 2001-2013
</metadata>
<g transform="translate(0.000000,200.000000) scale(0.100000,-0.100000)"
fill="#000000" stroke="none">
<path d="M1428 1081 c-112 -37 -179 -124 -180 -236 -1 -141 73 -225 274 -305
32 -13 74 -37 93 -53 29 -24 35 -35 35 -68 0 -25 -7 -46 -20 -59 -17 -17 -31
-23 -92 -35 -45 -8 -111 18 -156 62 l-45 46 -54 -29 c-29 -16 -62 -36 -73 -44
-21 -16 -21 -16 10 -58 69 -96 192 -148 333 -140 102 6 172 35 226 93 48 52
65 108 58 190 -9 123 -61 180 -243 266 -72 35 -130 69 -143 85 -37 47 -24 102
28 124 45 18 95 5 134 -35 l33 -33 66 41 c37 23 67 47 68 53 0 20 -72 95 -114
116 -45 24 -188 35 -238 19z"/>
<path d="M900 740 c0 -367 -3 -390 -52 -406 -55 -17 -91 -7 -134 39 l-40 45
-69 -42 c-38 -23 -70 -46 -72 -52 -2 -6 12 -31 32 -56 47 -63 126 -101 218
-106 134 -8 226 37 274 135 l28 58 3 363 3 362 -95 0 -96 0 0 -340z"/>
</g>
</svg>
